<svg width="1080" height="1080" viewBox="0 0 1080 1080" fill="none" xmlns="http://www.w3.org/2000/svg">
<g clip-path="url(#clip0_319_881)">
<rect width="1080" height="1080" rx="96" fill="#DF69A8"/>
<path d="M675.489 401.613C616.681 401.613 617.834 298.976 613.221 267.839C608.609 265.532 594.772 263.226 584.394 263.226C531.352 263.226 503.678 300.129 505.984 352.024C508.29 435.056 553.261 468.5 595.925 506.556C648.967 553.839 685.866 602.274 688.173 666.855C690.479 761.419 621.293 826 504.831 826C421.808 826 377.99 783.331 363 714.137C365.306 692.226 374.531 662.242 406.818 662.242C469.085 662.242 469.085 771.798 476.003 813.314C485.228 817.927 499.065 817.927 508.29 817.927C567.098 817.927 592.466 774.105 590.16 721.056C589.007 662.242 547.495 618.419 510.596 586.129C456.401 535.387 418.349 489.258 416.042 417.758C413.736 332.419 465.625 254 580.935 254C655.886 254 703.163 293.21 717 356.637C717 377.395 704.316 401.613 675.489 401.613Z" fill="#F6F6F6"/>
</g>
<defs>
<clipPath id="clip0_319_881">
<rect width="1080" height="1080" rx="96" fill="white"/>
</clipPath>
</defs>
</svg>
