<svg width="143" height="33" viewBox="0 0 143 33" fill="none" xmlns="http://www.w3.org/2000/svg">
<path d="M11.5728 17.468C9.26281 17.468 9.30481 13.394 9.13681 12.176C9.01081 12.134 8.54881 12.05 8.21281 12.05C6.44881 12.05 5.56681 13.142 5.65081 15.032C5.73481 18.182 7.54081 19.442 9.01081 20.786C10.9428 22.508 12.2448 24.314 12.3288 26.666C12.4548 30.236 9.72481 32.546 5.35681 32.546C2.29081 32.546 0.610813 30.95 0.0648127 28.346C0.190813 27.464 0.526813 26.288 1.82881 26.288C4.30681 26.288 4.34881 30.488 4.60081 32.126C4.85281 32.252 5.27281 32.252 5.52481 32.252C7.45681 32.252 8.29681 30.824 8.25481 29.018C8.17081 26.834 6.61681 25.196 5.35681 24.062C3.34081 22.172 1.99681 20.45 1.91281 17.804C1.78681 14.57 3.80281 11.714 8.12881 11.714C11.0268 11.714 12.7488 13.226 13.2528 15.578C13.2528 16.46 12.7908 17.468 11.5728 17.468ZM24.4612 5.918H24.9232C24.9232 5.918 24.3772 9.782 23.9992 12.302H27.7792L27.6532 13.016H23.9152C23.4532 15.914 22.2772 23.39 21.8572 26.162C21.6472 27.548 21.1012 30.656 22.4452 30.656C24.2092 30.656 25.5112 28.01 25.9312 27.086L26.1832 27.128C25.3852 29.144 23.2432 32.546 19.6312 32.546C16.2712 32.546 16.8172 28.598 17.2792 25.742L19.2952 13.016H16.1872L16.2712 12.302H19.4212L19.5892 11.168L19.7992 10.958C22.9072 10.958 23.9572 10.076 24.4612 5.918ZM44.1215 11.756C46.1375 11.756 47.5655 13.226 47.9015 14.696C47.5235 16.334 46.5575 17.636 45.1715 17.636C43.7015 17.636 42.6095 15.452 42.5675 13.436C39.7955 13.436 36.7295 25.196 36.0155 28.766L35.5115 32H30.8075C30.8075 32 32.3195 22.424 33.0335 18.056C33.2435 16.544 33.4535 15.368 33.4115 14.906C33.4115 14.318 33.2855 13.646 32.6135 13.646C30.8495 13.646 29.5895 16.25 29.2115 17.216L28.9595 17.132C29.7575 15.116 31.7735 11.756 35.3015 11.756C37.1915 11.756 37.8215 13.058 37.9055 14.528C38.0315 15.872 37.8215 17.258 37.6955 18.224L36.6875 24.356C38.1575 18.812 40.5095 11.756 44.1215 11.756ZM59.1647 15.662C59.2907 13.982 59.0387 12.008 57.9047 12.008C54.4607 12.008 52.3187 20.912 52.6547 24.356C56.0987 22.928 58.9547 19.022 59.1647 15.662ZM62.9867 15.956C63.1547 20.618 57.4427 23.306 52.6967 24.65C52.9487 26.414 53.7047 29.732 57.1067 29.732C59.4167 29.732 61.0127 27.884 62.0207 26.288L62.1887 26.372C61.0127 29.144 58.3667 32.546 54.2927 32.546C49.5887 32.546 48.0347 28.136 47.9087 25.028C47.7827 20.03 50.5967 11.714 57.9887 11.714C61.1387 11.714 62.9027 13.478 62.9867 15.956ZM86.4362 27.086L86.6462 27.128C85.0922 30.992 83.1602 32.546 80.7242 32.546C78.0782 32.546 76.5242 31.286 75.8102 28.598L74.5082 23.558C74.0042 22.004 73.6682 20.954 71.9042 20.912L70.3922 32H65.4782L69.4682 2.978C69.6362 1.928 69.5942 1.34 67.6202 1.34H67.4522V1.088C72.6182 1.088 73.7942 0.709997 74.5502 0.247998H74.8022L71.9882 20.492C73.9202 20.366 75.1802 19.106 75.9362 17.93C77.1122 16.376 77.5742 14.36 79.0022 12.974C79.7162 12.218 80.7662 11.714 82.1102 11.714C84.1262 11.714 85.5542 12.848 86.0162 14.108C85.8482 15.032 85.3022 15.536 84.3782 15.536C82.9082 15.536 81.7742 13.268 81.6062 11.966C80.5562 12.092 79.8422 12.47 79.2122 13.1C77.8682 14.444 77.3642 16.46 76.2302 17.972C75.4742 19.106 74.2982 20.366 72.5342 20.66C76.7762 20.744 78.2882 21.794 79.1282 24.902C79.1282 24.902 79.7582 27.002 80.0522 28.052C80.4722 29.48 81.1022 30.656 82.8242 30.656C84.5462 30.656 85.7642 28.472 86.4362 27.086ZM99.6481 17.258C99.6061 15.83 99.4381 12.05 97.3381 12.05C93.8101 12.05 93.0121 23.39 93.0961 26.876C93.1381 28.22 93.3901 32.21 95.4901 32.21C99.0601 32.21 99.7321 20.072 99.6481 17.258ZM88.3081 24.818C88.1821 20.114 90.8701 11.756 97.7161 11.756C102.882 11.756 104.352 16.04 104.436 19.526C104.604 24.23 101.958 32.546 95.0701 32.546C89.9881 32.546 88.4341 28.262 88.3081 24.818ZM122.065 13.31C121.561 14.906 120.595 16.292 118.663 18.056C115.429 20.996 111.691 23.642 108.583 26.708C109.465 26.372 110.221 26.246 110.851 26.246C113.917 26.246 114.841 29.312 117.319 29.312C118.999 29.312 119.671 28.64 120.133 27.674C119.251 26.246 117.613 25.574 117.487 24.23C117.361 22.886 118.033 21.878 119.419 21.668C120.637 22.13 120.889 23.222 120.889 24.23C121.015 27.17 119.251 32.546 114.757 32.546C110.431 32.546 111.187 27.044 108.835 27.044C108.625 27.044 108.457 27.086 108.247 27.128L108.037 32H105.307C105.937 30.152 106.735 27.968 108.163 26.456C109.843 24.734 116.983 19.106 117.823 18.14C117.823 18.14 111.565 15.788 109.969 15.788C107.197 15.788 107.239 20.618 107.239 20.618L106.945 20.576C106.945 20.576 106.735 11.714 111.859 11.714C114.211 11.714 117.613 13.982 119.167 15.2C119.377 15.326 119.671 15.158 119.587 14.906C119.335 14.318 119.083 13.478 119.083 12.974C119.083 12.47 119.461 11.714 120.553 11.714C122.107 11.714 122.065 13.31 122.065 13.31ZM136.382 15.746L136.76 13.856C136.34 13.016 135.668 12.638 134.87 12.638C129.998 12.47 128.486 23.81 128.612 27.17C128.654 28.892 129.116 30.404 130.334 30.404C133.274 30.404 135.836 18.224 136.382 15.746ZM128.57 32.546C124.58 32.546 123.908 28.598 123.824 26.582C123.656 21.248 127.394 11.588 133.988 11.672C135.206 11.714 136.424 12.386 136.886 13.688L138.314 11.966L141.338 12.428L138.692 27.17C138.398 28.598 137.936 31.202 139.406 31.202C140.54 31.202 141.884 29.018 142.724 26.96L142.934 27.044C141.884 29.522 140.582 32.546 137.222 32.546C134.534 32.546 133.778 30.278 134.282 27.464L135.29 21.794C134.408 24.944 132.14 32.546 128.57 32.546Z" fill="#DF69A8"/>
</svg>
